<svg id="icons" xmlns="http://www.w3.org/2000/svg" viewBox="0 0 180 180"><defs><style>.cls-1{fill:#ffd55f;}.cls-2{fill:#546e7a;}</style></defs><title>Artboard 1</title><path class="cls-1" d="M97.9,58c-10.5-6.45-21.59,5.75-24.27,15.18-1.54,5.39-1.22,11.39,1.77,16.24,2.27,3.68,6.59,7.55,11.19,6.33a.68.68,0,0,0,.4-1c-1.46-2.67-3.79-4.73-5.12-7.5A16.42,16.42,0,0,1,81,75.16c2.29-7.32,8.9-13.7,16.62-14.75C98.8,60.25,98.79,58.5,97.9,58Z"/><path class="cls-1" d="M136.62,79.8a12.71,12.71,0,0,0-3.07-3.8c-2.68-2.59-2.55-4.38-2.94-7.85a2.76,2.76,0,0,0-5.39-.73,11.83,11.83,0,0,0,.39,9.38,11,11,0,0,0,2.82,3.15c2.6,2.31,3.59,4.13,2.85,7.66-.43,2-1.35,5.7-2.78,7.13s-4.36,1.53-6.27,2.26c-2.88,1.1-6.88,3.64-8.38,6.46a10.4,10.4,0,0,0-.84,4c-.34,2.85-1,3.79-3.51,5.12-5.14,2.79-9.47,2.86-14.47-.16-2.52-1.52-6-4.44-9.16-4-3.37.43-4.86,4.59-6.39,7.07-.65,1.06.73,2.64,1.81,1.81s4-3.48,5.24-3.33c1.65.2,4.14,2.54,5.59,3.45,3.52,2.2,7.22,3.94,11.48,3.42a26.33,26.33,0,0,0,11.07-4.39c3.22-2.27,3.87-4.6,4.36-8.26.86-6.38,7.93-4.64,12-7.22,3.09-2,4.52-6.07,5.63-9.36C137.92,87.78,138.42,83.55,136.62,79.8Z"/><path class="cls-1" d="M68.3,91.4a15,15,0,0,0-5.09-2.61,12.22,12.22,0,0,0-2.65-.56,25.89,25.89,0,0,0-3.26.29A1.1,1.1,0,0,0,57,90.67a10,10,0,0,1,1.68,1.18c.67.44,1.36.85,2,1.29,1.32.87,2.36,2.06,3.66,3a3.12,3.12,0,0,0,3.73-.48l.18-.17A2.87,2.87,0,0,0,68.3,91.4Z"/><path class="cls-1" d="M69.82,64.84a3.78,3.78,0,0,0-2-1.47,15.57,15.57,0,0,1-1.69-.8,1.5,1.5,0,0,0-1.51,2.58,17.17,17.17,0,0,1,1.72,1.11,3.57,3.57,0,0,0,2.19.89A1.55,1.55,0,0,0,69.82,64.84Z"/><path class="cls-1" d="M113.95,50.74A9.81,9.81,0,0,0,112,46.25a12,12,0,0,0-2.82-3.41c-1.31-.94-2.84.36-2.95,1.69a11.63,11.63,0,0,0,.84,4.08,9.52,9.52,0,0,0,2,4.16C110.66,54.42,114.21,53.27,113.95,50.74Z"/><path class="cls-1" d="M83.78,108.92c-2-.61-4-.88-6-1.39-1.4-.35-2.8-.7-4.22-1a14.25,14.25,0,0,1-2.9-.47,1.45,1.45,0,0,0-2.26.29c-1.78,3.71,4.33,5.52,6.77,6.56,3.22,1.37,8.69,3.38,10-1.56A2,2,0,0,0,83.78,108.92Z"/><path class="cls-1" d="M118.41,104.12c-3.27.32-5.38,1.74-8,3.66a18.6,18.6,0,0,1-9.74,4.08c-1.21.12-2.26,1.72-1.11,2.69,6.73,5.68,16.36-2.11,20.47-7.54A1.93,1.93,0,0,0,118.41,104.12Z"/><path class="cls-1" d="M132.91,80.6c-2.9-1.77-4.34,2.11-4.87,4.22a72.78,72.78,0,0,1-4,11.57c-.67,1.51,1.17,3.34,2.47,1.91a32.73,32.73,0,0,0,6-8.86C133.46,87.12,135.93,82.44,132.91,80.6Z"/><path class="cls-1" d="M126,55.36a1.54,1.54,0,0,0-2.65,1.55A19.36,19.36,0,0,1,125,64.37a25.42,25.42,0,0,0,.53,6.23,1.67,1.67,0,0,0,3,.39C131.53,66.18,128.76,59.65,126,55.36Z"/><path class="cls-1" d="M122.48,124.94c-3.61-4-9.47-4.34-14.55-4.15-7.94.29-15.88,1-23.81,1.5-5.57.37-14.14-.62-19,2.66a5.88,5.88,0,0,0-2,7.84,30.09,30.09,0,0,0-3.68-.07c-3.51.08-7.56-.05-10.71,1.71a.85.85,0,0,0,0,1.46c5.19,2.56,11.55,1.06,17,3.13,2.4.91,3.86-2.41,2.35-4a6.22,6.22,0,0,0-2-1.44,1.31,1.31,0,0,0,.19-1.08c-1.05-4.09,8.77-3.05,11-3.18,4.86-.27,9.72-.52,14.57-.8,8.56-.49,19-3,26.75,1.45C121.84,131.74,124.85,127.59,122.48,124.94Z"/><path class="cls-1" d="M149,118.39c-.13-2.61-.05-5.89-.48-9,2.69-8.29.92-18.37-.09-26.67-1.26-10.31-1.88-21.08-3.93-31.25a1.3,1.3,0,0,0-2.48,0c-2.75,9.57-.62,20.63.44,30.34.56,5.12,1,10.24,1.12,15.4,0,1.39,0,2.77,0,4.15a1.26,1.26,0,0,0-.72.64c-1.86,3.79-.47,7.72,0,11.77a103.38,103.38,0,0,1,.58,15.74q0,.93-.1,1.85.28,1.49-.46.59c.52-.3-3.52.07-2.68,0-2.67.34-5.34.58-8,.75-4.72.29-10-.36-14.51,1.22a1.54,1.54,0,0,0-.36,2.77c.24.14.49.26.74.38a7.74,7.74,0,0,0-.93,2.45c-.33,1.54,0,3.2-.41,4.71-.63,2.45-.71,1.56-2.4.44a5.22,5.22,0,0,0-6.24.24c-.85.61-1.35,1.73-2.19,2.25-3.12,2-4.14,0-6.24-1.33-1.92-1.2-3.94-2.2-6.27-1.87-3.27.46-3.25,3-5.54,4.4-2.53,1.6-7.21-2.22-10-2.16s-5.21,3.41-7.56,3a1.15,1.15,0,0,0-1.28,1.66c1.15,1.9,2.58,2.24,4.74,1.95,3-.4,4.34-1.24,7.46.21a14.64,14.64,0,0,0,4.59,1.59c3.22.35,4.27-1.11,6.64-2.72,4.26-2.91,5.77,1.5,9.89,2.34,3.51.72,5.37-1,8.18-2.47,1.83-1,.27-.91,2.44.33a6,6,0,0,0,3.74.69c6.74-.74,6.66-8.67,7.3-14.07a58.35,58.35,0,0,0,11-.08c3.71-.27,11.2,0,13.39-3.72,1-1.76.73-4.36.78-6.28C149.17,125.18,149.16,121.78,149,118.39Z"/><path class="cls-1" d="M172,107.7a2.58,2.58,0,0,0-3.53,0,6.54,6.54,0,0,0-1.89,3.44c-.12.42-.2,1.06-.38,1.54-.1.08-.31.26-.44.26-2,0-4.42-.68-6.42-.19a2.55,2.55,0,0,0-1.77,3.12c1.68,4.74,8.15,6.37,12.39,4.25C174.43,117.9,176,111.19,172,107.7Z"/><path class="cls-1" d="M172.81,76.47a3.47,3.47,0,0,0-5.42-.7,15.81,15.81,0,0,0-1.92,2.87c-.12.21-.51.79-.64,1a4.11,4.11,0,0,0-.62.59c-.33.22-.7.37-1,.6l-.22.12a2.9,2.9,0,0,0-2.56.15c-2.6,1.53-2,5,.28,6.54a6.88,6.88,0,0,0,6.49.18C171.46,86,175.06,81.07,172.81,76.47Z"/><path class="cls-1" d="M172.63,50.17c-.39-2.53-3.63-3.31-5.57-2.26a7.22,7.22,0,0,0-2.46,2.64l-.31.41c-.22-.12-.39-.27-.52-.34a2.8,2.8,0,0,0-3.33.43c-3.24,3.37,1,7.77,4.71,7.81a7.6,7.6,0,0,0,5.23-2.3A7.2,7.2,0,0,0,172.63,50.17Z"/><path class="cls-1" d="M22,48.55a4,4,0,0,0-5.06,1.66c-.07.14-.5,1.08-.55,1.21l-.26.49L16,51.79a2.68,2.68,0,0,0-3.21-.41,4,4,0,0,0-1.28,5.3,5.78,5.78,0,0,0,4.08,3c4.23.91,7.62-2.61,8.76-6.38A4.05,4.05,0,0,0,22,48.55Z"/><path class="cls-1" d="M23.39,83.53c-.25-1.71-2.26-2.94-3.86-2.94a4.1,4.1,0,0,0-3.86,2.94c-.07.22-.17.49-.22.74-.59-.23-.76-.59-1.5-1-1.12-.63-3-.39-3.6.94-1.66,3.9,2.07,7.7,6,7.79a7.29,7.29,0,0,0,5.16-2.13A7.16,7.16,0,0,0,23.39,83.53Z"/><path class="cls-1" d="M37.23,99.63c-4.65-.45-10.93,3.18-14.64,5.72-1.34.92-2.44,2-2.26,3.73a23.83,23.83,0,0,0,.93,3,9.07,9.07,0,0,1,.2,1.32,4.89,4.89,0,0,0-3.84,2,12.15,12.15,0,0,0-.94,1.4l0,0c-1.19-1.36-3.2-.75-4.1.53-2.58,3.65,1.13,8.67,5.3,8,2.23-.35,3.77-2,5-3.7,1.38-1.89,2.23-3.89,1.51-6.11a5.8,5.8,0,0,0,.75-2,7.07,7.07,0,0,0-.13-2.91,12.75,12.75,0,0,0-.49-1.41l.18-.14c1.47-1.57,4.83-2.64,6.78-3.38,2.2-.84,4.7-1.17,6.71-2.41A1.92,1.92,0,0,0,37.23,99.63Z"/><path class="cls-1" d="M40.13,80.74c-3.29.34-6.51,1.21-9.79,1.64-3.09.4-6.54.34-9.44,1.53a.84.84,0,0,0-.2,1.51c5.14,3.31,14.61,2.51,20.13.44C43.35,84.92,43.28,80.41,40.13,80.74Z"/><path class="cls-1" d="M41,61.84c-2.35.12-4.42,1.33-6.78,1.53a13.86,13.86,0,0,1-7.51-1.43c-1.3-.72-2.88,1.11-1.65,2.14a16,16,0,0,0,8.5,4.18c3,.44,7,.27,9.22-2.13C44.21,64.62,43.31,61.72,41,61.84Z"/><path class="cls-1" d="M161.46,53.31c-2.26,2.81-4.17,5.4-7.39,7.21a74.22,74.22,0,0,1-10.91,4.61,1.27,1.27,0,0,0,.34,2.49c5.2-.06,9.76-.11,14.52-2.72,3.9-2.14,7-5.39,7.51-9.9C165.74,53,162.72,51.75,161.46,53.31Z"/><path class="cls-1" d="M161.5,83.33c-2.39-1.43-5.12-.9-7.74-.4a27.65,27.65,0,0,0-8.11,2.59c-1.49.81-.69,2.9.81,3a75.43,75.43,0,0,0,8-.22c2.41-.08,5,.08,7-1.37A2.12,2.12,0,0,0,161.5,83.33Z"/><path class="cls-1" d="M160.26,105.92c-1.76-1.24-3.69-.36-5.68-.3a15.09,15.09,0,0,1-6-.74c-1.66-.66-2.87,2.16-1.23,2.91a32.25,32.25,0,0,0,6.6,2.69c2.29.48,5.09,1.18,6.83-.76A2.46,2.46,0,0,0,160.26,105.92Z"/><path class="cls-1" d="M63,126.85c-3.87-1.93-9.9-.94-14.57.59-1-4.22-1.61-8.52-3.09-12.63a.89.89,0,0,0-1.73.23c-.39,5.28.5,10.49.46,15.77a2.6,2.6,0,0,0,2.57,2.57c2.67,0,5.32-.43,8-.51,2.52-.07,5.29.51,7.64-.47C64.4,131.49,65.57,128.15,63,126.85Z"/><path class="cls-1" d="M140.88,116.9c-.64-4.79-1-9.64-1.49-14.45a.75.75,0,0,0-1.5,0c-.51,5.72-.88,11.47-1.67,17.16-.41,2.93.48,2.58-2.46,3.15-2.55.49-5,.33-7.5,1.22a3.23,3.23,0,0,0,0,6.18,17.58,17.58,0,0,0,7.77.1,1.83,1.83,0,0,0,1.49.62,6.47,6.47,0,0,0,1.83-.34,5.62,5.62,0,0,0,1.58-.94,4,4,0,0,0,.93-1.09,2.2,2.2,0,0,0,.24-.86,5.38,5.38,0,0,0,1.41-1.83C142.61,123.38,141.21,119.37,140.88,116.9Z"/><path class="cls-1" d="M113.47,67.88A40.34,40.34,0,0,0,104.58,58c-3.15-2.39-6.56-2.47-9.55.12a2.66,2.66,0,0,0-1,2.15A20.26,20.26,0,0,0,87.22,62c-3.35,1.48-7.32,3.85-8.36,7.57-.54,1.93,1.37,4.1,3.4,3.4,3-1,5-3.61,7.66-5.27a30.35,30.35,0,0,1,8.16-4c1.94.59,3.36,2.89,4.62,4.24,1.8,1.93,3.64,3.66,4.65,6.14a13.73,13.73,0,0,1-1.19,12.51c-4.77,7.24-16,9-21.69,2.22-1.44-1.73-3.81-.14-4,1.66C79.7,97.92,89,101.21,95,101.06A22.71,22.71,0,0,0,114,89.55,22.13,22.13,0,0,0,113.47,67.88Z"/><path class="cls-2" d="M94.29,102.46h-.65A23.29,23.29,0,0,1,71.26,79.94C71,66.57,80.58,55.75,93.19,55.3c.55,0,1.11,0,1.67,0a25.85,25.85,0,0,1,14.75,5.09,22.25,22.25,0,0,1,8.84,17.73,24.28,24.28,0,0,1-24.15,24.34ZM94,58.28h-.69C82.17,58.69,74,68,74.26,79.87A20.25,20.25,0,0,0,93.73,99.45a21.28,21.28,0,0,0,21.71-21.28,19.3,19.3,0,0,0-7.66-15.39,22.86,22.86,0,0,0-13-4.48Z"/><path class="cls-2" d="M100.69,118.67a1.5,1.5,0,0,1-1.34-.83c-.48-1-1-1.93-1.5-2.88-.71-1.34-1.44-2.71-2.1-4.12-.85,0-1.7.06-2.55,0a30.32,30.32,0,0,1-8.79-1.55A65.88,65.88,0,0,0,81,115.61a1.5,1.5,0,0,1-1.92.74,40.34,40.34,0,0,1-14.53-10.29,1.5,1.5,0,0,1-.09-1.89l1.63-2.23C67,100.67,68,99.36,69,98.08a31.16,31.16,0,0,1-4.43-8.38L62,89.62c-1.74-.06-3.48-.12-5.23-.15a1.5,1.5,0,0,1-1.44-1.17,39,39,0,0,1-.92-7.57,45.89,45.89,0,0,1,.38-7.08,1.5,1.5,0,0,1,1.35-1.3c2.84-.26,5.32-.56,7.55-.9a34.08,34.08,0,0,1,2.49-7.11l-.81-.75c-1.34-1.24-2.73-2.53-4.14-3.73a5.94,5.94,0,0,1-.74-.75,1.5,1.5,0,0,1-.14-1.72A38.78,38.78,0,0,1,71.7,45.16a1.5,1.5,0,0,1,1.91.17l1.87,1.88c1.1,1.11,2.31,2.32,3.45,3.44a29.47,29.47,0,0,1,10-3.42c.1-2.32.28-4.73.54-7.32a1.5,1.5,0,0,1,1.4-1.35L92,38.5c.95,0,1.91,0,2.85,0a47.77,47.77,0,0,1,12.41,2.1,1.5,1.5,0,0,1,1,1.62c-.32,2.62-.56,5.22-.74,7.37a33,33,0,0,1,7.36,4.22c.75.57,1.47,1.17,2.16,1.8,2.12-1.32,4.31-2.57,6.43-3.79a1.6,1.6,0,0,1,1.94.25,37.35,37.35,0,0,1,7.9,13.62,1.5,1.5,0,0,1-.81,1.83c-.78.35-1.56.68-2.34,1-1.48.63-2.89,1.23-4.25,1.93a32.56,32.56,0,0,1,1,7.38c0,.6,0,1.2,0,1.8,2.47.32,4.9.83,7,1.31A1.5,1.5,0,0,1,135,82.58a40.32,40.32,0,0,1-5.07,15.47,1.5,1.5,0,0,1-1.68.71c-1.2-.31-2.39-.65-3.59-1s-2.47-.69-3.72-1a33.35,33.35,0,0,1-7.33,7.57c.42,1.11.86,2.22,1.29,3.33s.92,2.34,1.36,3.51a1.5,1.5,0,0,1-.61,1.8,40.81,40.81,0,0,1-14.72,5.68Zm-4-10.91a1.5,1.5,0,0,1,1.37.9c.72,1.65,1.55,3.22,2.43,4.88.34.64.68,1.29,1,1.94A37.75,37.75,0,0,0,113,111.07l-.9-2.31c-.58-1.48-1.16-3-1.71-4.45a1.5,1.5,0,0,1,.55-1.75A30.42,30.42,0,0,0,119,94.23a1.5,1.5,0,0,1,1.62-.63c1.62.4,3.25.86,4.82,1.29l2.41.67a37.3,37.3,0,0,0,4-12,56.5,56.5,0,0,0-6.74-1.11,1.5,1.5,0,0,1-1.36-1.63,28,28,0,0,0,.11-2.95,29.25,29.25,0,0,0-1.16-7.77,1.5,1.5,0,0,1,.71-1.73A56.69,56.69,0,0,1,129,65.78l1-.44A34.29,34.29,0,0,0,124,55c-2.15,1.23-4.29,2.48-6.32,3.77a1.5,1.5,0,0,1-1.86-.2,28.17,28.17,0,0,0-2.73-2.37A30.12,30.12,0,0,0,105.41,52a1.5,1.5,0,0,1-1-1.53c.17-2,.39-4.64.7-7.34A45.2,45.2,0,0,0,94.7,41.51c-.78,0-1.58,0-2.36,0C92.1,44,92,46.34,91.88,48.6A1.5,1.5,0,0,1,90.54,50,26.57,26.57,0,0,0,79.49,53.8a1.5,1.5,0,0,1-1.83-.2c-1.37-1.33-2.91-2.88-4.3-4.27l-1-1a35.74,35.74,0,0,0-8.79,9.56c1.32,1.14,2.61,2.33,3.85,3.49l1.63,1.5a1.5,1.5,0,0,1,.32,1.8,31.13,31.13,0,0,0-2.94,8.37,1.5,1.5,0,0,1-1.23,1.19c-2.25.37-4.73.68-7.56,1a43,43,0,0,0-.22,5.43,35.84,35.84,0,0,0,.61,5.84l4.07.13,3.53.11a1.5,1.5,0,0,1,1.39,1.06,28.21,28.21,0,0,0,5,9.35A1.5,1.5,0,0,1,72,99c-1.19,1.54-2.36,3.15-3.49,4.71l-.91,1.24A37.39,37.39,0,0,0,79,113a59.13,59.13,0,0,1,3.57-6.33,1.5,1.5,0,0,1,1.78-.58,27.38,27.38,0,0,0,9,1.76,30,30,0,0,0,3.28-.09Z"/><path class="cls-2" d="M80.91,91.27a1.5,1.5,0,0,1-1.4-2c.75-2,1.47-4,2.18-5.94a165.49,165.49,0,0,1,6.43-16,1.5,1.5,0,0,1,2.79.25l.34,1.21c1.79,6.35,3.65,12.92,4.86,19.55a1.5,1.5,0,0,1-3,.54c-1-5.56-2.5-11.12-4-16.55-1.71,4-3.19,8-4.63,12-.72,2-1.45,4-2.2,6A1.5,1.5,0,0,1,80.91,91.27Z"/><path class="cls-2" d="M85.64,80.74a1.5,1.5,0,0,1-.1-3c.88-.06,1.72-.07,2.51-.07h.69a31.55,31.55,0,0,0,3.63-.12,1.5,1.5,0,0,1,.33,3,34.83,34.83,0,0,1-4,.14H88c-.73,0-1.51,0-2.29.06Z"/><path class="cls-2" d="M102.76,90.07a1.5,1.5,0,0,1-1.5-1.46q0-1.24,0-2.49c0-2.34.07-4.73.14-7s.14-4.65.14-7c0-1.57,0-3-.1-4.31a1.5,1.5,0,1,1,3-.15c.07,1.38.1,2.84.1,4.46,0,2.35-.07,4.74-.14,7s-.14,4.64-.14,6.94q0,1.21,0,2.41A1.51,1.51,0,0,1,102.76,90.07Z"/><path class="cls-2" d="M98.85,68.55a1.5,1.5,0,0,1-.21-3,35,35,0,0,1,4.53-.27c.92,0,1.87,0,2.82-.1a1.5,1.5,0,1,1,.21,3c-1,.07-2,.09-3,.1a32.24,32.24,0,0,0-4.15.24Z"/><path class="cls-2" d="M99.56,90.82a1.5,1.5,0,0,1-.11-3c2.36-.18,4.53-.18,6.83-.18a1.5,1.5,0,0,1,0,3c-2.24,0-4.36,0-6.6.17Z"/><path class="cls-2" d="M43,134.6a1.5,1.5,0,0,1-1.5-1.47c-.08-4.55-.37-8.42-.69-12.89-.5-6.88-1.07-14.67-1.07-27.36,0-10,.29-20.1.58-29.91s.58-19.92.58-29.85v-.59a1.5,1.5,0,0,1,1.5-1.5c5.27,0,10.66-.13,15.88-.25,2.84-.06,5.68-.13,8.51-.18.39-1.77.72-3.39,1-4.93a1.5,1.5,0,0,1,1.47-1.22c8,.15,16,.23,23.93.23,7.07,0,14.22-.06,21.27-.18a1.49,1.49,0,0,1,1.5,1.21c.24,1.21.46,2.49.65,3.88,3.51-.07,7-.09,10.46-.1,4.22,0,8.59,0,12.89-.16a1.48,1.48,0,0,1,1.08.41,1.5,1.5,0,0,1,.47,1.05l2.39,100.5a1.5,1.5,0,0,1-1.43,1.53c-6.16.28-12.46.31-18.37.31a1.5,1.5,0,0,1-1.49-1.3,31.82,31.82,0,0,0-2.07-8.26c-8,.59-25.17,1.57-55.75,2.17a45.06,45.06,0,0,0-.87,6.92,1.5,1.5,0,0,1-1.43,1.43C56.07,134.36,49.52,134.53,43,134.6ZM43.87,34c0,9.68-.3,19.51-.58,29C43,72.84,42.71,83,42.71,92.87c0,12.58.57,20.32,1.06,27.14.28,3.86.55,7.53.67,11.57,5.54-.07,11.09-.22,16.54-.44a48.84,48.84,0,0,1,1.11-7.22,1.5,1.5,0,0,1,1.43-1.16c32.67-.62,50.25-1.69,57.82-2.26a1.5,1.5,0,0,1,1.47.85,31.51,31.51,0,0,1,2.56,8.78c5,0,10.29,0,15.48-.24l-2.32-97.53c-3.84.09-7.71.11-11.46.12s-7.83,0-11.75.13a1.51,1.51,0,0,1-1.53-1.32c-.17-1.36-.35-2.6-.56-3.77-14.16.23-28.5.21-42.75,0-.3,1.54-.65,3.17-1,4.94A1.5,1.5,0,0,1,68,33.59c-3.22,0-6.45.12-9.67.2C53.58,33.89,48.69,34,43.87,34Z"/><path class="cls-2" d="M117.16,150.25a1.5,1.5,0,0,1-.83-.25c-1.31-.87-2.58-1.81-3.81-2.72-1.07-.79-2.17-1.61-3.29-2.37-1.92,1.41-4.06,3-6.07,4.8a1.49,1.49,0,0,1-1.58.25,43.57,43.57,0,0,1-8.2-5l-.49-.36c-2,1.49-4.1,3.06-6.12,4.66a1.5,1.5,0,0,1-1.64.15c-1.45-.77-2.87-1.61-4.25-2.43s-2.53-1.5-3.83-2.2c-1.73,1.23-3.55,2.35-5.32,3.43l-2.27,1.4a1.5,1.5,0,0,1-2.3-1.26c0-3.59-.14-7.24-.26-10.76-.13-4-.27-8.21-.27-12.36a1.5,1.5,0,1,1,3,0c0,4.11.14,8.26.27,12.27.09,2.68.18,5.43.23,8.18,2.11-1.29,4.06-2.48,5.9-3.86a1.5,1.5,0,0,1,1.59-.13c1.65.86,3.25,1.8,4.8,2.72,1.07.63,2.17,1.28,3.27,1.89,2.09-1.64,4.22-3.24,6.32-4.76a1.5,1.5,0,0,1,1.75,0l1.39,1a45.61,45.61,0,0,0,6.78,4.32c2.17-1.85,4.43-3.53,6.38-4.95a1.5,1.5,0,0,1,1.69,0c1.5,1,2.93,2,4.31,3l1.25.92q-.07-1.93-.15-3.86c-.19-4.74-.38-9.64-.38-14.44q0-1.81,0-3.61a1.5,1.5,0,0,1,3,.07q0,1.77,0,3.54c0,4.74.19,9.62.38,14.33.09,2.3.18,4.6.25,6.89a1.5,1.5,0,0,1-1.5,1.55Z"/><path class="cls-2" d="M103.24,135.48c-3.51,0-7.1-.12-10.58-.24-4.62-.15-9.39-.31-14-.19a1.5,1.5,0,0,1-.08-3c4.69-.12,9.52,0,14.18.19,3.45.12,7,.23,10.48.23a1.5,1.5,0,0,1,0,3Z"/><path class="cls-2" d="M64.63,134.87a7.45,7.45,0,0,1-3.11-.59,1.5,1.5,0,0,1,1.22-2.74,4.46,4.46,0,0,0,1.9.33c.37,0,.73,0,1.1,0a14.66,14.66,0,0,1,2.34,0,1.5,1.5,0,1,1-.33,3,11.61,11.61,0,0,0-1.86,0C65.47,134.85,65.05,134.87,64.63,134.87Z"/><path class="cls-2" d="M117.16,133.77a1.5,1.5,0,0,1,0-3,25,25,0,0,0,6.67-.59,1.5,1.5,0,0,1,.79,2.89A27.65,27.65,0,0,1,117.16,133.77Z"/><path class="cls-2" d="M17.32,56.57H17a6.5,6.5,0,0,1-6.24-6.3,7.12,7.12,0,0,1,3.54-6.42A6.42,6.42,0,0,1,17.62,43,6.78,6.78,0,0,1,22.2,54.62,7.06,7.06,0,0,1,17.32,56.57ZM15.87,46.43a4.18,4.18,0,0,0-2.07,3.71,3.48,3.48,0,0,0,3.36,3.43,4,4,0,0,0,3-1.11,3.63,3.63,0,0,0,1.13-2.68A3.67,3.67,0,0,0,17.59,46,3.31,3.31,0,0,0,15.87,46.43Z"/><path class="cls-2" d="M15.66,88.57h-.18A6.34,6.34,0,0,1,9.2,82a6.62,6.62,0,0,1,5.09-6.88,7.25,7.25,0,0,1,1-.12A6.85,6.85,0,0,1,20.36,77a6.76,6.76,0,0,1,2.08,5,6.6,6.6,0,0,1-2,4.69A6.87,6.87,0,0,1,15.66,88.57ZM14.83,78.1c-1.77.33-2.67,2.2-2.64,3.87a3.39,3.39,0,0,0,3.37,3.6,3.81,3.81,0,0,0,2.75-1.06,3.62,3.62,0,0,0,1.13-2.57,3.79,3.79,0,0,0-1.16-2.81A3.84,3.84,0,0,0,15.41,78,4.21,4.21,0,0,0,14.83,78.1Z"/><path class="cls-2" d="M16.81,121.18h-.08a6.22,6.22,0,0,1-6.16-5.84,8,8,0,0,1,3-6.57,3.66,3.66,0,0,1,1.68-.71,6.42,6.42,0,0,1,.7-.1,6.51,6.51,0,0,1,5,1.76,7.29,7.29,0,0,1,2.26,5.48v.2A6.25,6.25,0,0,1,16.81,121.18Zm-1.38-10.06a4.87,4.87,0,0,0-1.86,4,3.2,3.2,0,0,0,3.2,3,3.25,3.25,0,0,0,3.4-3,4.31,4.31,0,0,0-1.3-3.27,3.43,3.43,0,0,0-2.66-1l-.37.05A1.22,1.22,0,0,0,15.42,111.12Z"/><path class="cls-2" d="M40.29,65.15h-.16c-1.68-.18-3.29-.22-4.85-.26-6.19-.16-12-.31-15.67-10a1.5,1.5,0,0,1,2.81-1.05c2.93,7.82,6.7,7.91,12.94,8.08,1.61,0,3.28.09,5.08.28a1.5,1.5,0,0,1-.16,3Z"/><path class="cls-2" d="M22.09,83.67a1.5,1.5,0,1,1,0-3c5.94,0,12.08,0,18-.42a1.5,1.5,0,0,1,.21,3C34.28,83.67,28.08,83.67,22.09,83.67Z"/><path class="cls-2" d="M18.88,110.86a1.5,1.5,0,0,1-1.34-2.17C22.38,99,30.79,99,36.36,99a33.12,33.12,0,0,0,3.33-.11,1.5,1.5,0,1,1,.33,3,35.15,35.15,0,0,1-3.66.13c-5.41,0-12.14,0-16.15,8A1.5,1.5,0,0,1,18.88,110.86Z"/><path class="cls-2" d="M165,55.91a6.32,6.32,0,0,1-6.48-6A6.55,6.55,0,0,1,163,43.42a5.77,5.77,0,0,1,1.35-.25,7.2,7.2,0,0,1,5.07,2,6,6,0,0,1,2,4.42A6.5,6.5,0,0,1,165,55.91Zm-.31-9.75h-.13a2.85,2.85,0,0,0-.66.12,3.54,3.54,0,0,0-2.39,3.51A3.33,3.33,0,0,0,165,52.91a3.49,3.49,0,0,0,3.42-3.34,3,3,0,0,0-1-2.22A4.33,4.33,0,0,0,164.73,46.16Z"/><path class="cls-2" d="M165.71,86.52a9.11,9.11,0,0,1-1,0,6.57,6.57,0,0,1-5.53-6.58,6.38,6.38,0,0,1,4.12-6.1,6.83,6.83,0,0,1,2-.42,7.27,7.27,0,0,1,4.93,1.93,5.87,5.87,0,0,1,2,4.13,7,7,0,0,1-1.92,5.14A6.33,6.33,0,0,1,165.71,86.52Zm-.17-10.15h-.09a3.79,3.79,0,0,0-1.07.24,3.41,3.41,0,0,0-2.15,3.3,3.56,3.56,0,0,0,2.86,3.58,4,4,0,0,0,.63,0,3.31,3.31,0,0,0,2.44-1,4,4,0,0,0,1.09-2.92,2.89,2.89,0,0,0-1-2A4.4,4.4,0,0,0,165.54,76.38Z"/><path class="cls-2" d="M165.65,118.68a6.25,6.25,0,0,1-6.46-6.15,7.3,7.3,0,0,1,4.44-7.28,5.12,5.12,0,0,1,1.85-.37,6.68,6.68,0,0,1,4.62,1.9,6.78,6.78,0,0,1,2.1,4.79,7.09,7.09,0,0,1-2,5.16A6.44,6.44,0,0,1,165.65,118.68ZM164.76,108a4.3,4.3,0,0,0-2.58,4.31,3.26,3.26,0,0,0,3.44,3.34,3.63,3.63,0,0,0,2.4-1.08,4.11,4.11,0,0,0,1.17-3,3.79,3.79,0,0,0-1.18-2.68,3.74,3.74,0,0,0-2.49-1.06A2.13,2.13,0,0,0,164.76,108Z"/><path class="cls-2" d="M161.7,109a1.5,1.5,0,0,1-1.33-.81c-2.11-4.11-6.08-5-11.38-5-1,0-2.06,0-3.08.06-1.45,0-2.85.08-4.18,0a1.5,1.5,0,0,1-1.45-1.55,1.52,1.52,0,0,1,1.55-1.45c1.26,0,2.62,0,4,0,1,0,2.11-.06,3.16-.06,5.27,0,11.06.78,14,6.58A1.5,1.5,0,0,1,161.7,109Z"/><path class="cls-2" d="M147.21,83.72a49.93,49.93,0,0,1-5.38-.27,1.5,1.5,0,1,1,.32-3,47.17,47.17,0,0,0,5.06.26,113.06,113.06,0,0,0,12.08-.87l.31,0a1.5,1.5,0,0,1,.32,3l-.31,0A115.26,115.26,0,0,1,147.21,83.72Z"/><path class="cls-2" d="M141.78,64.61a1.5,1.5,0,0,1-.05-3c10.18-.38,15.77-3.13,17.09-8.42a1.5,1.5,0,0,1,2.91.73c-1.67,6.67-8.36,10.26-19.89,10.69Z"/></svg>