<svg id="icons" xmlns="http://www.w3.org/2000/svg" viewBox="0 0 180 180"><defs><style>.cls-1{fill:#ffd55f;}.cls-2{fill:#546e7a;}</style></defs><title>ic_dashboard</title><path class="cls-1" d="M61.78,32.08c-2.8-1.64-6.85-2.56-8.33,1.27a5.8,5.8,0,0,0-.08,3.46C52.65,41.92,53,47.46,53,52.4c0,2.84,3.46,3.3,4.92,1.33C61,49.56,64.44,44.9,66.16,40,67.47,36.18,64.88,33.89,61.78,32.08Zm-.5,5.81c-.21.42-.44.84-.66,1.26A5.91,5.91,0,0,0,60,37.42l.1.05A1.83,1.83,0,0,0,61.28,37.89Z"/><path class="cls-1" d="M83.25,67.36c-5.83-.13-14.71,2.69-19.48,7.84-4.54,3.48-8.2,7.93-9.26,11.72-2.52,9,2,23.89,11.11,27.57.78.31,1.41-.71,1-1.35-3.83-6.59-7.21-15.7-5-23.44A9.81,9.81,0,0,1,63,86.87a2.12,2.12,0,0,0,1.22-.4c2.66-1.82,4.49-4.36,6.89-6.44,3.69-2.12,8.09-2,11.54-4.16a3.14,3.14,0,0,0,.48-.4h.09c9-.14,14.41,6.08,21.76,9.89.69.36,1.84-.07,1.73-1C105.55,73.81,92.78,67.57,83.25,67.36Z"/><path class="cls-1" d="M94.57,108.26l-.7-.13a3.74,3.74,0,0,0-1.65.07,65.79,65.79,0,0,0-4.5-16.06c-.73-1.66-3.15-.69-3.2.87a128.45,128.45,0,0,0,1.07,19.53,4.68,4.68,0,0,0,.14.65c-2.64.81-5.76,1-7.87,1.8a1.57,1.57,0,0,0-.37,2.82C83,122,93.55,120.22,96.91,114,98,112,97.15,108.75,94.57,108.26Z"/><path class="cls-1" d="M95.49,96.66c-1.64-2.64-3.12-5.37-4.54-8.13-.87-1.69-3-.4-2.82,1.19a39,39,0,0,0,2.6,9.47c1.09,2.63,2,5.94,5,6.74a2.46,2.46,0,0,0,3-1.71C99.21,101.1,97.07,99.2,95.49,96.66Z"/><path class="cls-1" d="M149.92,111.52a9,9,0,0,0-.3-1c-3.06-10.19-6.42-20.32-9.91-30.37-3.2-9.2-5.9-18.19-12-25.93-.77-1-2.58.08-2.12,1.24,3.64,9.08,5.72,18.89,8.38,28.28q2.07,7.31,4.23,14.61c-3.1-8.16-6-16.38-8.39-24.81q-2.28-8.08-4.19-16.25c-1.26-5.38-2.07-11.48-5-16.24a1.11,1.11,0,0,0-2,.26c-1.44,5.07-.43,10.76.32,15.88a185.71,185.71,0,0,0,3.74,18.3,219.92,219.92,0,0,0,11.56,34.55,3.09,3.09,0,0,0,2,1.77c-7.45.05-15.81-1.71-21.11,3.48a1.75,1.75,0,0,0,.77,2.91A118.1,118.1,0,0,0,131,119.37c4.35.13,11.4,1.13,15.25-1.21a3.74,3.74,0,0,0,1.75-2.54A3.41,3.41,0,0,0,149.92,111.52Zm-8.32-2.16.58,1.81a19.23,19.23,0,0,1-3.2.54A4.34,4.34,0,0,0,141.59,109.36Z"/><path class="cls-1" d="M155.21,42.15c-.78,3.9-2.49,7.74-7.06,8-3.58.16-6.05-2.48-9.3-3.34a1.64,1.64,0,0,0-2,1.13c-1.61,6.78,7.53,10.62,12.9,10.3,7.39-.44,13.89-7.53,13.5-15C163,38.87,156.16,37.39,155.21,42.15Z"/><path class="cls-1" d="M159.52,30.6c-1.2-2.05-3.51-2.32-5.51-1.44a3.12,3.12,0,0,1-3.05-.59c-1-.73-2.45-2.76-3.93-1.66-2.62,2-1.13,6,.78,8,2.74,2.78,6.93,2.93,10.27,1.25A4.07,4.07,0,0,0,159.52,30.6Z"/><path class="cls-1" d="M155.11,41.92c-1.78,1.73-3.08,3.43-5.46,4.41s-4.56.78-7,.88a1.52,1.52,0,0,0-1.06,2.57c5,4.75,15.64,2,18.41-4.07C161.42,42.61,157.81,39.3,155.11,41.92Z"/><path class="cls-1" d="M134.6,131c-.73-3.27-6.14-4.29-7.59-1-.35.8-.66,2.57-1.5,2.81-1.26.36-2.73-1.82-3.68-2.37a2.31,2.31,0,0,0-2.75.35c-3.84,4.06,1.7,9.73,5.87,10.25C130.43,141.69,135.85,136.55,134.6,131Z"/><path class="cls-1" d="M31.25,94.73a4.07,4.07,0,0,0-5.12-3.41A8.17,8.17,0,0,0,23.37,93l-.06,0-.14.08a5.8,5.8,0,0,0-.55.29l-.14,0a2.44,2.44,0,0,0-2-1.2c-3.92,0-4.75,5.09-2.42,7.48,2.62,2.69,7,2.15,10,.4C30,99,31.56,97,31.25,94.73Z"/><path class="cls-1" d="M48.89,74.85a4.58,4.58,0,0,0-.8-.82c.46.27.33.15-.42-.4l-.4-.12,0,0c-1.34-.35-2.52,0-3.94-.23-3.63-.58-8.18-2.49-9.8-6-.61-1.32-2.48-.55-2.55.69-.22,4.23,2,7.63,5.58,9.79s8.34,4,11.85,1.26A3.41,3.41,0,0,0,48.89,74.85Z"/><path class="cls-1" d="M74,41.87a1.44,1.44,0,0,0-2.38,1.39c1.22,4.19,2,7.82.55,12-1.26,3.66,4.51,6.12,6.28,2.65C81.44,52,78,46.2,74,41.87Z"/><path class="cls-1" d="M99.33,39.7c-1.3,1.32-3.1,4.4-4.92,2.14a2.14,2.14,0,0,0-3.34.43c-1.89,3.37,1.1,7,4.41,7.71,4.12.9,8.06-2.1,10.17-5.4C108.13,40.7,102.52,36.47,99.33,39.7Z"/><path class="cls-1" d="M60.71,128.81a2.89,2.89,0,0,0-1.11-1.31,5.89,5.89,0,0,0-3.24-.66,7.32,7.32,0,0,0-2.7.72,1.55,1.55,0,0,0-.07,2.93l.18.13c-2.09,3.67-3.87,7.6-5.66,11.41-1.56,3.32-3.16,7.54-7.53,5.81-.81-.32-1.53.48-1.58,1.21-.38,5.36,7.06,5.85,10.38,3.66,2.69-1.78,4.28-4.68,5.81-7.42,2.16-3.85,4.46-7.79,6.22-11.85A4.23,4.23,0,0,0,60.71,128.81Z"/><path class="cls-1" d="M118.46,97a1.87,1.87,0,0,0-.29-.48c.3-9-2.5-18.29-8.19-23.49a1.18,1.18,0,0,0-2,1.14c1.81,7,4.11,13.48,3.88,20.88s-3.25,13.59-5.15,20.52a1.86,1.86,0,0,0-.06.43,32.57,32.57,0,0,1-16.51,11.11A32,32,0,0,1,70,125.81a41.93,41.93,0,0,1-9-5c-2.85-2-5.29-4.88-8.46-6.41a.73.73,0,0,0-1.09.62c.22,7.44,8.74,13.32,14.79,16.09a38.64,38.64,0,0,0,25,2.59A37.4,37.4,0,0,0,111.74,120C116.24,114.14,121.48,104.48,118.46,97Z"/><path class="cls-2" d="M80.57,134.66q-1.11,0-2.23-.06c-16.86-.83-35.2-15.62-35.42-38.05C42.7,75.29,58.17,57.88,78.13,56.9l1,0A44.69,44.69,0,0,1,105,64c9.88,6.47,15.39,16.31,15.92,28.47a40.78,40.78,0,0,1-11.8,30.7A40,40,0,0,1,80.57,134.66Zm-.23-74.8H79.18l-.91,0c-18.34.9-32.56,17-32.36,36.62.21,20.69,17.07,34.32,32.57,35.09A37.26,37.26,0,0,0,107,121a37.77,37.77,0,0,0,10.91-28.44c-.49-11.15-5.53-20.17-14.57-26.09A41.26,41.26,0,0,0,80.33,59.86Z"/><path class="cls-2" d="M81.93,125.49A29.16,29.16,0,0,1,56.16,110.3C48.38,96.19,52.46,79,65.44,71.17l.64-.38a33.62,33.62,0,0,1,19.8-4.54c8.94.77,16.16,5.37,20.89,13.3a30.91,30.91,0,0,1,3.15,24.73A30.46,30.46,0,0,1,93.51,123,27,27,0,0,1,81.93,125.49ZM67.57,73.4l-.57.34c-11.6,7-15.21,22.42-8.21,35.12,7.37,13.38,23.09,16.34,33.43,11.42a27.51,27.51,0,0,0,14.85-16.86,27.9,27.9,0,0,0-2.86-22.32A23.28,23.28,0,0,0,85.64,69.24,30.74,30.74,0,0,0,67.57,73.4Z"/><path class="cls-2" d="M44,156a5.1,5.1,0,0,1-2.68-.74c-.82-.5-1.62-1-2.37-1.58a6.69,6.69,0,0,1-2.67-5.55,10.07,10.07,0,0,1,2-5.82c4.47-6.08,8.75-12.45,12.89-18.61l2-3a1.5,1.5,0,0,1,2.49,1.68l-2,3c-4.16,6.19-8.46,12.58-13,18.71a7,7,0,0,0-1.4,4,3.75,3.75,0,0,0,1.45,3.14c.67.5,1.4,1,2.14,1.43A2.11,2.11,0,0,0,44,153c1.36,0,3.14-1.14,4.42-2.84,2.59-3.43,5.19-6.88,7.88-10.42a70.08,70.08,0,0,0,4-6c1.07-1.75,2.17-3.57,3.41-5.26A1.5,1.5,0,1,1,66,130.23c-1.16,1.6-2.19,3.28-3.27,5.06a72.34,72.34,0,0,1-4.12,6.26c-2.68,3.54-5.29,7-7.87,10.42C49.3,153.91,46.73,156,44,156Z"/><path class="cls-2" d="M59,138.9a1.49,1.49,0,0,1-.74-.2A58.52,58.52,0,0,1,48,131.63a1.5,1.5,0,0,1,2-2.24,55.58,55.58,0,0,0,9.67,6.72,1.5,1.5,0,0,1-.75,2.8Z"/><path class="cls-2" d="M94.5,113.56h-.83a1.5,1.5,0,0,1-1.42-1.94l10.39-33.88a1.5,1.5,0,1,1,2.87.88l-9.79,31.94,2.53,0c2.08,0,4.15-.08,6.19,0a1.5,1.5,0,0,1,1.45,1.55,1.48,1.48,0,0,1-1.55,1.45c-2-.06-4,0-6,0C97,113.53,95.77,113.56,94.5,113.56Z"/><path class="cls-2" d="M123.59,113.61c-2.7,0-5.14,0-7.47-.11a1.5,1.5,0,0,1,.1-3c2.3.08,4.71.11,7.37.11,3.85,0,7.76-.08,11.54-.15,2.32,0,4.65-.09,7-.12L117.83,38.45,108.77,68a1.5,1.5,0,0,1-2.87-.88l10.43-34a1.5,1.5,0,0,1,2.86,0l26.43,78.26a1.5,1.5,0,0,1-1.41,2c-3,0-6,.08-9,.14C131.39,113.53,127.47,113.61,123.59,113.61Z"/><path class="cls-2" d="M74.44,115.18a1.5,1.5,0,0,1-1.41-2l9.69-26.39a1.65,1.65,0,0,1,1.65-1.52,1.5,1.5,0,0,1,1.4,1l9.59,24.9a1.5,1.5,0,0,1-.41,1.66,1.5,1.5,0,0,1-1.43,1.55l-19,.84ZM84.38,91l-7.75,21.12,15.62-.69Z"/><path class="cls-2" d="M96.64,45.37h-.21a5.65,5.65,0,0,1-5.58-5.28,6.37,6.37,0,0,1,4.35-6.53,4.67,4.67,0,0,1,1.18-.2,6.31,6.31,0,0,1,4.5,1.81,5.77,5.77,0,0,1,1.85,4.18,5.89,5.89,0,0,1-1.78,4.29A6.23,6.23,0,0,1,96.64,45.37Zm0-9h-.08a1.76,1.76,0,0,0-.43.07,3.35,3.35,0,0,0-2.24,3.46,2.65,2.65,0,0,0,2.69,2.49,3.27,3.27,0,0,0,2.33-.9,2.87,2.87,0,0,0,.87-2.12,2.79,2.79,0,0,0-.92-2A3.44,3.44,0,0,0,96.6,36.35Z"/><path class="cls-2" d="M147.88,52a14.23,14.23,0,0,1-10-3.87,13.7,13.7,0,0,1-4.16-9.76c-.11-7.36,5-13.5,11.86-14.28.4,0,.81-.08,1.21-.09a14.49,14.49,0,0,1,10.49,4,13.66,13.66,0,0,1,4.19,9.87c0,7.6-5.91,13.92-13.23,14.09Zm-1.95-24.93c-5.33.61-9.28,5.45-9.2,11.26A10.72,10.72,0,0,0,140,46a11.3,11.3,0,0,0,8.21,3,10.87,10.87,0,0,0,10.3-11.08,10.69,10.69,0,0,0-3.27-7.72A11.57,11.57,0,0,0,146.89,27C146.57,27,146.25,27,145.93,27.07Z"/><path class="cls-2" d="M147,39.23a1.5,1.5,0,0,1-1.5-1.4c-.12-1.83-.18-3.8-.18-6s.06-4.33.12-6.35a1.5,1.5,0,0,1,3,.09c-.06,2-.12,4.14-.12,6.26,0,1.57,0,3,.09,4.36,1.72-.09,3.47-.22,5.16-.35,2.05-.15,4.17-.31,6.27-.4a1.48,1.48,0,0,1,1.56,1.43A1.5,1.5,0,0,1,160,38.42c-2,.09-4.15.24-6.18.39-2.21.16-4.49.33-6.74.42Z"/><path class="cls-2" d="M125.47,136.4a6.28,6.28,0,0,1-4.58-2A7.1,7.1,0,0,1,119,129.2a6.39,6.39,0,0,1,4.55-5.89,5.22,5.22,0,0,1,1.11-.2,6.92,6.92,0,0,1,5.19,2,6.7,6.7,0,0,1,2.16,5A6.57,6.57,0,0,1,125.47,136.4Zm-.37-10.31h-.21a2.22,2.22,0,0,0-.47.08,3.43,3.43,0,0,0-2.43,3.16,4.09,4.09,0,0,0,1.09,3,3.3,3.3,0,0,0,2.4,1.05A3.59,3.59,0,0,0,129,130a3.71,3.71,0,0,0-1.23-2.75A4,4,0,0,0,125.1,126.09Z"/><path class="cls-2" d="M24.88,97.44h-.21A6.51,6.51,0,0,1,18.44,91,6.38,6.38,0,0,1,22.37,85a7,7,0,0,1,3-.53A6.43,6.43,0,0,1,31.63,91a6.27,6.27,0,0,1-2,4.52A6.92,6.92,0,0,1,24.88,97.44Zm.25-10a4.21,4.21,0,0,0-1.62.31A3.39,3.39,0,0,0,21.44,91a3.54,3.54,0,0,0,3.33,3.49,4,4,0,0,0,2.81-1.11A3.3,3.3,0,0,0,28.63,91a3.45,3.45,0,0,0-3.35-3.48Z"/><path class="cls-2" d="M56.65,84.31a1.5,1.5,0,0,1-.21-3,25.64,25.64,0,0,0,18.83-13.7A1.5,1.5,0,0,1,77.92,69,28.64,28.64,0,0,1,56.86,84.29Z"/><path class="cls-2" d="M46.91,83.78a1.51,1.51,0,0,1-.37,0A27.93,27.93,0,0,1,25.9,56.86c0-14.56,10.6-26.68,24.14-27.58a24.91,24.91,0,0,1,4.45.11c12.79,1.46,23,9.16,25.9,19.61a23.75,23.75,0,0,1,.84,5.21,27.69,27.69,0,0,1-.11,4.3,1.5,1.5,0,1,1-3-.31,24.57,24.57,0,0,0,.1-3.83,20.77,20.77,0,0,0-.73-4.56C74.89,40.54,65.73,33.7,54.15,32.37a21.7,21.7,0,0,0-3.91-.1c-12,.79-21.34,11.59-21.34,24.58a24.9,24.9,0,0,0,18.37,24,1.5,1.5,0,0,1-.37,3Z"/><path class="cls-2" d="M28.36,60.7H27.5a1.5,1.5,0,0,1,0-3h.85c4.9,0,9.88-.09,14.7-.19,2.93-.05,5.86-.11,8.79-.15C51,48.6,50.56,39.65,50.53,30.74a1.5,1.5,0,1,1,3,0c0,9.38.53,18.79,1.47,28a1.5,1.5,0,0,1-1.48,1.65c-3.47,0-6.94.1-10.41.16C38.28,60.6,33.28,60.7,28.36,60.7Z"/><path class="cls-2" d="M54.08,59.71a1.5,1.5,0,0,1-1.23-2.36c3.68-5.28,7.38-10.65,11-15.85L68,35.41a1.5,1.5,0,0,1,2.47,1.7L66.28,43.2c-3.58,5.2-7.29,10.59-11,15.87A1.5,1.5,0,0,1,54.08,59.71Z"/><path class="cls-2" d="M41.1,133a1.5,1.5,0,0,1-1-.41q-.75-.71-1.47-1.44a1.5,1.5,0,1,1,2.15-2.1q.68.69,1.38,1.36a1.5,1.5,0,0,1-1,2.59ZM34,124.6a1.5,1.5,0,0,1-1.24-.66q-.58-.85-1.12-1.73a1.5,1.5,0,0,1,2.55-1.58q.51.83,1.05,1.63A1.5,1.5,0,0,1,34,124.6Zm-5.16-9.69a1.5,1.5,0,0,1-1.39-.93q-.39-.95-.75-1.91a1.5,1.5,0,1,1,2.81-1q.34.92.71,1.82a1.5,1.5,0,0,1-1.39,2.07ZM25.63,104.4a1.5,1.5,0,0,1-1.47-1.19q-.21-1-.39-2a1.5,1.5,0,0,1,3-.53q.17,1,.37,1.92a1.5,1.5,0,0,1-1.16,1.78A1.48,1.48,0,0,1,25.63,104.4Z"/><path class="cls-2" d="M80.14,147.85c-.73,0-1.41-.05-2.08-.09a1.5,1.5,0,0,1,.17-3l2,.09a1.5,1.5,0,0,1,0,3Zm9-.27a1.5,1.5,0,0,1-.15-3q1-.1,1.94-.24a1.5,1.5,0,0,1,.41,3q-1,.14-2,.25Zm-19.91-.87-.27,0q-1-.19-2-.4a1.5,1.5,0,0,1,.63-2.93l1.92.38a1.5,1.5,0,0,1-.27,3Zm30.67-1.33a1.5,1.5,0,0,1-.45-2.93q.94-.29,1.84-.61a1.5,1.5,0,0,1,1,2.83c-.64.22-1.29.44-2,.65A1.49,1.49,0,0,1,99.88,145.37Zm-41.27-1.58a1.49,1.49,0,0,1-.53-.1q-1-.36-1.91-.75a1.5,1.5,0,0,1,1.15-2.77q.89.37,1.81.72a1.5,1.5,0,0,1-.53,2.9ZM110,141.06a1.5,1.5,0,0,1-.72-2.82q.88-.48,1.69-1a1.5,1.5,0,0,1,1.53,2.58q-.86.51-1.78,1A1.49,1.49,0,0,1,110,141.06Zm9.22-6a1.5,1.5,0,0,1-.87-2.72l.48-.34a1.5,1.5,0,1,1,1.73,2.45l-.47.33A1.49,1.49,0,0,1,119.19,135.06Z"/></svg>