<svg id="icons" xmlns="http://www.w3.org/2000/svg" viewBox="0 0 180 180"><defs><style>.cls-1{fill:#ffd55f;}.cls-2{fill:#546e7a;}</style></defs><title>ic_valuations_tool</title><path class="cls-1" d="M117.42,29.57a3.7,3.7,0,0,0-6.84,1.85s0,.05,0,.08a3,3,0,0,0-.61-.25c-4.73-1.29-10.46.95-15.27,1.51-2.44.28-4.89.51-7.34.74s-6.53,1.37-9,.54c-1.63-.54-2.59,1.58-1.58,2.71,3.09,3.44,11,2.64,15.18,2.56,5.45-.11,14.21.35,18.68-3.06a3.2,3.2,0,0,0,.43-.4c.13.57.27,1.15.41,1.77.08.34.32,1.11.56,2a3.22,3.22,0,0,0-2.41.89c-2.24.4-4.77.25-6.91.48q-3.71.39-7.4.92a122.69,122.69,0,0,0-16.68,3.84,1.18,1.18,0,0,0-.75,1.47,16.75,16.75,0,0,1-3-.26,1.8,1.8,0,0,0-2,2.61c2.2,4.74,9.1,4.7,13.57,5a97.15,97.15,0,0,0,21.41-1.21c4.83-.74,11.06-1.46,12.93-6.84C122.32,41.92,119.91,33.39,117.42,29.57Z"/><path class="cls-1" d="M60.43,71.49a3.83,3.83,0,0,0-3.72-3.72A3.76,3.76,0,0,0,53,71.49a9.74,9.74,0,0,1-1.51,6.17,3.71,3.71,0,0,1-2,1.62c-.76.24-1.37.31-1.69,1.15-.55,1.45.89,2.88,2.17,3.32,1.95.67,4.06-.16,5.6-1.33A12.47,12.47,0,0,0,60.43,71.49Z"/><path class="cls-1" d="M136.38,72c-.64-1.59-2.25-3-4.11-2.33-2.59.89-2.79,3-4.29,4.85a5.39,5.39,0,0,1-3.14,1.76c-1.75.34-1.94,2.51-1,3.66,2,2.4,5.62,2.17,8.07.57S137.61,75.08,136.38,72Z"/><path class="cls-1" d="M102.67,68.82c-3.58,3.09-5.83,1.85-9.83.77a9.46,9.46,0,0,0-5.92,0c-4.31,1.61-6.16,6-7.61,10-.3.83,1,1.32,1.39.59,2.1-3.58,4.52-7.05,9.43-5.82,2.16.54,4,2.2,6.18,2.81,4.37,1.22,7.87-.9,11.11-3.63S105.93,66,102.67,68.82Z"/><path class="cls-1" d="M114.1,113.66c-5-3.89-13.14-.24-15.53-7.38-.62-1.86-1-4.5.1-6.32.49-.83,2.16-1.54,2.91-2.24a14.86,14.86,0,0,0,3.69-5.44c2.09-5.22,1.41-11.46-.26-16.71-1.29-4.07-6.86-2.32-6.25,1.72,1,6.8,2.91,12.44-3.07,17.44-3.45,2.89-4.45,6.37-3.49,10.78.89,4.13,2.62,8.38,6.75,10.06,5.49,2.23,14-1.3,15.48,6.46a1.38,1.38,0,0,0,2.5.33C118.8,119.18,116.79,115.74,114.1,113.66Z"/><path class="cls-1" d="M62.79,82.7a10.68,10.68,0,0,0,.86-1.17A6.93,6.93,0,0,0,65,77.36c0-3.63-2.57-5.84-5.12-8a.77.77,0,0,0-1.2.92c1.15,2.17,2.1,4.19,1.27,6.58-.57,1.63-1.48,2.13-2.48,3.44S55.36,83.6,56,85.43c.6,1.67,1.92,2,3.39,2.51s2.92.63,3.63,2.49c.48,1.25.23,2.34.89,3.6a2.3,2.3,0,0,0,3.56.46C71.94,90.93,67.21,84.38,62.79,82.7Z"/><path class="cls-1" d="M137.67,80.52c.5-.9,1.21-2.34,1.26-2.53a10.54,10.54,0,0,0,.29-4.8A9.25,9.25,0,0,0,135,66.8c-.88-.59-1.66.52-1.31,1.31a10.37,10.37,0,0,1,.1,9.12c-.81,1.62-2.37,2.9-2.08,4.92A4,4,0,0,0,133.83,85c.75.4,1.83,0,2.53.46C139,87,138.93,89.22,138,91.6s2.74,4.49,4.37,2.55C147.16,88.41,143.44,82.46,137.67,80.52Z"/><path class="cls-1" d="M102,150.47a3.59,3.59,0,0,0-5.16-2.1c-1.56.72-2.16,2.09-3.1,3.41a3.48,3.48,0,0,1-1.58,1.41c-1.44.34-2-2.05-3.21-2.61a2.59,2.59,0,0,0-3.74,1.52c-1.39,4.84,2.33,8.92,7.22,9S103.87,155.66,102,150.47Z"/><path class="cls-1" d="M77.45,149.36C68.88,147.43,61.07,141.13,55,135a85.67,85.67,0,0,1-8.48-10.18c-2.25-3.13-4.13-6.73-7-9.3-.5-.44-1.56-.19-1.47.61.94,8.45,8.79,16.7,14.55,22.46,6.22,6.22,14.49,14.28,23.42,16C79.39,155.2,80.87,150.13,77.45,149.36Z"/><path class="cls-1" d="M146,113.32c-3,8.39-6.27,16.69-12.43,23.31-5.75,6.18-14.94,9.64-22.5,13-1.18.53-.34,2.56.89,2.11,9-3.34,18.64-4.95,25.39-12.42a57.5,57.5,0,0,0,13.09-24.79A2.31,2.31,0,0,0,146,113.32Z"/><path class="cls-1" d="M119.31,104.79a14.48,14.48,0,0,0-6.64-2.05,16,16,0,0,0-3.89.22c-1,.17-3.67,1.19-3.61.8.12-.71,4-3.16,4.55-3.9a15.48,15.48,0,0,0,3.08-7.45A22.89,22.89,0,0,0,109,76.56a1,1,0,0,0-1.93.52c0,6.09,3.15,13-1.34,18.29-2.94,3.48-8.16,4.23-8.67,9.58-.35,3.64,2.36,6.4,5.94,6.73,2.82.26,5.27-1.39,8-1.55,4.25-.25,6.81,2.37,6.8,6.59,0,3.94,6.13,5,7,1A12.09,12.09,0,0,0,119.31,104.79Z"/><path class="cls-2" d="M71.83,47.56a1.5,1.5,0,0,1-1.5-1.5V20.36a1.5,1.5,0,0,1,1.49-1.5c7.26,0,14.61,0,21.72.09,5.76,0,11.71.1,17.58.1h2.34a1.5,1.5,0,0,1,1.5,1.37c.5,5.6.52,11.33.55,16.88,0,2.76,0,5.62.1,8.43a1.5,1.5,0,0,1-1.48,1.54c-6.22.1-12.54.09-18.65.1C87.75,47.37,79.73,47.36,71.83,47.56Zm1.5-25.7V44.53c7.4-.16,14.9-.16,22.15-.16,5.61,0,11.39,0,17.09-.08,0-2.34-.05-4.69-.07-7,0-5,0-10.21-.43-15.26h-1c-5.88,0-11.84-.05-17.6-.1C86.91,21.9,80.07,21.84,73.33,21.86Z"/><path class="cls-2" d="M73,35.22a1.5,1.5,0,0,1,0-3c7.3,0,14.79-.33,22-.66,6-.27,12.3-.55,18.41-.63a1.5,1.5,0,0,1,0,3c-6.07.08-12.3.36-18.32.63C87.9,34.88,80.37,35.22,73,35.22Z"/><path class="cls-2" d="M82.94,29H77.05a1.5,1.5,0,0,1,0-3h5.89a1.5,1.5,0,0,1,0,3Z"/><path class="cls-2" d="M77.23,41.1a1.5,1.5,0,0,1-.15-3,20.71,20.71,0,0,1,2.56,0l1.07,0a8.76,8.76,0,0,0,1.74-.14A1.5,1.5,0,1,1,83,40.89a11.69,11.69,0,0,1-2.33.2l-1.16,0a17,17,0,0,0-2.17,0Z"/><path class="cls-2" d="M64.16,126.1a1.5,1.5,0,0,1-1.5-1.42c0-.64-.06-1.27-.06-1.91,0-13.56,11-14.07,17.63-14.37,2.48-.11,5.56-.26,5.56-1.11,0-2.59-1.1-3.27-3.1-4.51-3.19-2-7.56-4.68-7.56-16.56,0-11.08,1.46-21,19.06-21,15,0,15,10.26,15,20.19,0,10.82-4.06,13.41-7,15.3-2,1.26-3.16,2-3.16,4.89,0,3.32,2.23,3.76,7.7,4s13.26.65,13.26,10.61c0,.37,0,.73,0,1.09s0,.67,0,1a1.5,1.5,0,1,1-3,0c0-.34,0-.69,0-1s0-.7,0-1.05c0-6.76-4-7.29-10.4-7.61-4.7-.23-10.56-.52-10.56-7,0-4.53,2.42-6.07,4.55-7.42,2.77-1.77,5.64-3.6,5.64-12.77,0-11.29-.54-17.19-12-17.19-14.91,0-16.06,7.47-16.06,18,0,10.2,3.26,12.22,6.14,14,2.12,1.31,4.52,2.8,4.52,7.06,0,3.72-4.28,3.92-8.42,4.11-8.37.39-14.76,1.47-14.76,11.38,0,.58,0,1.16.05,1.74a1.5,1.5,0,0,1-1.41,1.58Z"/><path class="cls-2" d="M92.45,119.73a17.44,17.44,0,0,1-14.87-8.36,1.5,1.5,0,1,1,2.55-1.58,14.46,14.46,0,0,0,12.32,6.94c3.5,0,9.49-2.12,10.55-5.31a1.5,1.5,0,0,1,2.85.95C104.25,117.17,97,119.73,92.45,119.73Z"/><path class="cls-2" d="M76.46,86.14a1.5,1.5,0,0,1-.59-2.88C84.62,79.51,87.41,73.05,87.44,73a1.5,1.5,0,0,1,2.38-.55,13.86,13.86,0,0,0,9.29,3.23,19.22,19.22,0,0,0,7.37-1.49,1.5,1.5,0,1,1,1.16,2.77,22.23,22.23,0,0,1-8.53,1.72,17.15,17.15,0,0,1-9.8-2.83A26.22,26.22,0,0,1,77.05,86,1.5,1.5,0,0,1,76.46,86.14Z"/><path class="cls-2" d="M51,84.84c-.27,0-.53,0-.8,0-4.33-.4-7.19-5.18-7.44-9.59-.28-4.88,2.08-10.35,7.13-11.36a5.22,5.22,0,0,1,.72-.09,9,9,0,0,1,6.88,2.67A11.5,11.5,0,0,1,61,74.76a10.56,10.56,0,0,1-3.56,7.55A9.83,9.83,0,0,1,51,84.84Zm.18-18.09h-.38l-.32,0c-3.34.67-4.93,4.74-4.73,8.24.18,3.08,2.12,6.53,4.72,6.77a6.71,6.71,0,0,0,5-1.75A7.55,7.55,0,0,0,58,74.67a8.53,8.53,0,0,0-2.61-6.08A6.15,6.15,0,0,0,51.19,66.75Z"/><path class="cls-2" d="M37.54,97.42a1.5,1.5,0,0,1-1.34-.83,4.34,4.34,0,0,1-.47-2c0-6.82,5.17-8,8.59-8.76,2.66-.6,3.31-.92,3.31-1.6,0-.19,0-.39,0-.59s0-.57,0-.85a1.5,1.5,0,1,1,3,0c0,.22,0,.43,0,.64s0,.54,0,.8c0,3.26-3.13,4-5.65,4.53-3.89.88-6.25,1.71-6.25,5.83a1.36,1.36,0,0,0,.16.64,1.5,1.5,0,0,1-1.34,2.17Z"/><path class="cls-2" d="M63.56,96.42a1.5,1.5,0,0,1-1.5-1.5V93.63c0-2.85-1.21-3.08-3.42-3.52s-5.18-1-5.18-5.25c0-.63.06-1.24.12-1.83l0-.38a1.5,1.5,0,1,1,3,.27l0,.39c0,.52-.1,1.05-.1,1.54,0,1.69.62,1.88,2.76,2.31s5.84,1.15,5.84,6.46v1.29A1.5,1.5,0,0,1,63.56,96.42Z"/><path class="cls-2" d="M51.31,92.27a8.88,8.88,0,0,1-7.6-4.3,1.5,1.5,0,0,1,2.6-1.5,5.83,5.83,0,0,0,5,2.81,6.7,6.7,0,0,0,4.17-1.73,1.5,1.5,0,0,1,2.82,1C57.9,90.12,54.37,92.27,51.31,92.27Z"/><path class="cls-2" d="M127.27,83.59H127A7.72,7.72,0,0,1,121.63,81,11.12,11.12,0,0,1,119,72.83c.2-4.32,2.76-7.79,6.5-8.84a7.26,7.26,0,0,1,1.89-.26h.1c4.47,0,8.27,3.79,8.67,8.67A11.43,11.43,0,0,1,133,80.94,8,8,0,0,1,127.27,83.59Zm.16-16.87h-.05a4.3,4.3,0,0,0-1.1.15c-3,.85-4.21,3.71-4.32,6.1a8.16,8.16,0,0,0,1.88,6,4.75,4.75,0,0,0,3.31,1.62,5.05,5.05,0,0,0,3.73-1.72,8.46,8.46,0,0,0,2.25-6.24A6.15,6.15,0,0,0,127.43,66.72Z"/><path class="cls-2" d="M115,96.12a1.5,1.5,0,0,1-1.5-1.5c0-.37,0-.71,0-1s0-.73,0-1.11c0-5.42,4.22-6.35,7-7s3.41-1,3.41-2.15a2.32,2.32,0,0,0-.07-.56,1.5,1.5,0,0,1,2.91-.72,5.33,5.33,0,0,1,.16,1.29c0,3.81-3.33,4.54-5.76,5.08-3.06.67-4.66,1.16-4.66,4,0,.32,0,.63,0,.94s0,.78,0,1.21A1.5,1.5,0,0,1,115,96.12Z"/><path class="cls-2" d="M140.26,96.29a1.5,1.5,0,0,1-1.49-1.39c0-.3,0-.6,0-.91s0-.79,0-1.19,0-.75,0-1.12c0-3.33-1.51-3.69-4.42-4.08-1.94-.26-4.88-.66-4.88-3.86,0-.34,0-.71.07-1.08s.06-.56.06-.84a2,2,0,0,0,0-.28,1.5,1.5,0,0,1,3-.42,5,5,0,0,1,0,.7c0,.37,0,.76-.07,1.14s-.06.53-.06.78,0,.58,2.28.88c2.62.36,7,1,7,7.06,0,.4,0,.81,0,1.22s0,.73,0,1.08,0,.47,0,.7a1.5,1.5,0,0,1-1.39,1.6Z"/><path class="cls-2" d="M127.54,91.31A8,8,0,0,1,120.63,88a1.5,1.5,0,1,1,2.52-1.62,5.09,5.09,0,0,0,4.39,1.91,6.17,6.17,0,0,0,5-2.24,1.5,1.5,0,1,1,2.3,1.92A9.16,9.16,0,0,1,127.54,91.31Z"/><path class="cls-2" d="M91.75,155.85h-.21a7,7,0,0,1-6.75-7A7.4,7.4,0,0,1,90,141.33a5.79,5.79,0,0,1,1.07-.18,7.48,7.48,0,0,1,5.62,2.28,7.6,7.6,0,0,1,2.35,5.84C98.84,153.26,95.14,155.85,91.75,155.85Zm-.93-11.63a4.49,4.49,0,0,0-3,4.52,4.06,4.06,0,0,0,3.85,4.11,4.34,4.34,0,0,0,4.45-3.76,4.93,4.93,0,0,0-4.75-4.94A2.79,2.79,0,0,0,90.82,144.23Z"/><path class="cls-2" d="M106.31,149.48a1.5,1.5,0,0,1-.29-3c20.6-4.13,34.48-16.52,42.44-37.88a1.5,1.5,0,0,1,2.81,1c-8.35,22.41-23,35.42-44.67,39.77Z"/><path class="cls-2" d="M78.3,149.66l-.25,0c-21.83-3.63-36.87-16.14-46-38.26a1.5,1.5,0,1,1,2.77-1.14c8.67,21.08,23,33,43.68,36.44a1.5,1.5,0,0,1-.24,3Z"/><path class="cls-2" d="M152.68,115.66a1.5,1.5,0,0,1-1.37-.89,28.72,28.72,0,0,1-1.67-4.91,26.61,26.61,0,0,1-6.52,3.05,1.5,1.5,0,1,1-.82-2.88,28.6,28.6,0,0,0,7.18-3.59l.41-.25a1.5,1.5,0,0,1,2.27,1,26.52,26.52,0,0,0,1.89,6.34,1.5,1.5,0,0,1-1.37,2.11Z"/><path class="cls-2" d="M30.83,117.4a1.5,1.5,0,0,1-1.39-2.07,26.51,26.51,0,0,0,1.68-6.4,1.5,1.5,0,0,1,2.23-1.1l.42.24a28.61,28.61,0,0,0,7.29,3.35,1.5,1.5,0,1,1-.73,2.91,26.63,26.63,0,0,1-6.62-2.84,28.68,28.68,0,0,1-1.5,5A1.5,1.5,0,0,1,30.83,117.4Z"/><path class="cls-2" d="M28.2,99.26a1.5,1.5,0,0,1-1.46-1.15q-.25-1-.44-2a1.5,1.5,0,1,1,2.95-.56q.18.94.41,1.88a1.5,1.5,0,0,1-1.1,1.81A1.53,1.53,0,0,1,28.2,99.26ZM27.07,88.35a1.51,1.51,0,0,1-1.5-1.54q0-1,.11-2.07a1.5,1.5,0,1,1,3,.23c0,.64-.08,1.29-.1,1.93A1.5,1.5,0,0,1,27.07,88.35ZM28.7,77.5a1.5,1.5,0,0,1-1.45-1.88q.26-1,.56-2a1.5,1.5,0,1,1,2.87.87q-.28.93-.53,1.87A1.5,1.5,0,0,1,28.7,77.5Zm3.81-10.3A1.5,1.5,0,0,1,31.16,65q.44-.92.91-1.83a1.5,1.5,0,0,1,2.66,1.38q-.45.87-.87,1.74A1.5,1.5,0,0,1,32.51,67.2Zm5.58-9.46a1.5,1.5,0,0,1-1.22-2.37q.6-.83,1.22-1.65a1.5,1.5,0,0,1,2.39,1.82q-.59.78-1.16,1.57A1.5,1.5,0,0,1,38.1,57.73Zm7.14-8.35a1.5,1.5,0,0,1-1-2.57q.74-.72,1.49-1.41a1.5,1.5,0,0,1,2,2.22Q47,48.27,46.29,49A1.49,1.49,0,0,1,45.24,49.38Zm8.59-6.84A1.5,1.5,0,0,1,53,39.77q.87-.56,1.76-1.07a1.5,1.5,0,1,1,1.5,2.6q-.84.48-1.66,1A1.5,1.5,0,0,1,53.83,42.54Zm9.9-4.71a1.5,1.5,0,0,1-.46-2.93q1-.32,2-.58a1.5,1.5,0,0,1,.77,2.9q-.93.24-1.84.54A1.51,1.51,0,0,1,63.73,37.83Z"/><path class="cls-2" d="M152.75,93.87h-.15a1.5,1.5,0,0,1-1.34-1.64c.07-.65.13-1.3.18-2A1.48,1.48,0,0,1,153,88.88a1.5,1.5,0,0,1,1.38,1.61c-.05.68-.12,1.35-.19,2A1.5,1.5,0,0,1,152.75,93.87Zm0-11a1.5,1.5,0,0,1-1.49-1.33c-.07-.64-.16-1.28-.26-1.93a1.5,1.5,0,1,1,3-.45q.15,1,.27,2a1.5,1.5,0,0,1-1.32,1.66Zm-2.22-10.77A1.5,1.5,0,0,1,149.07,71q-.28-.94-.58-1.87a1.5,1.5,0,1,1,2.85-.93q.32,1,.6,2a1.5,1.5,0,0,1-1,1.86A1.52,1.52,0,0,1,150.51,72.13Zm-3.9-10.28a1.5,1.5,0,0,1-1.36-.86q-.42-.88-.86-1.75a1.5,1.5,0,0,1,2.67-1.37q.46.91.9,1.84a1.5,1.5,0,0,1-1.35,2.14Zm-5.54-9.49a1.5,1.5,0,0,1-1.22-.62q-.57-.79-1.16-1.56a1.5,1.5,0,0,1,2.37-1.84q.63.81,1.23,1.65a1.5,1.5,0,0,1-1.22,2.38Zm-7.39-8.11a1.49,1.49,0,0,1-1-.35q-.74-.62-1.5-1.19A1.5,1.5,0,0,1,133,40.3q.83.62,1.64,1.3a1.5,1.5,0,0,1-1,2.65ZM124.2,38.8a1.51,1.51,0,0,1-.47-.08c-.59-.2-1.2-.37-1.8-.52a1.5,1.5,0,0,1,.7-2.92c.68.16,1.37.36,2,.58a1.5,1.5,0,0,1-.47,2.92Z"/></svg>